<?xml version="1.0" standalone="no"?><!DOCTYPE svg PUBLIC "-//W3C//DTD SVG 1.1//EN" "http://www.w3.org/Graphics/SVG/1.1/DTD/svg11.dtd"><svg t="1545016793744" class="icon" style="" viewBox="0 0 1024 1024" version="1.1" xmlns="http://www.w3.org/2000/svg" p-id="43264" xmlns:xlink="http://www.w3.org/1999/xlink" width="200" height="200"><defs><style type="text/css"></style></defs><path d="M784 402h88.724c16.168 0 29.276 13.054 29.276 29.16 0 0.634-0.02 1.268-0.062 1.902l-11.634 177.13-47.898-3.146L852.722 450H624.876l-39.034 128.786H153.718L179.492 874h510.57v48H162.34c-15.188 0-27.852-11.564-29.166-26.632L104.112 562.47c-1.4-16.044 10.52-30.18 26.628-31.576 0.844-0.072 1.69-0.108 2.538-0.108H202V550h48v-19.214h300.234l32.75-108.054C586.716 410.42 598.1 402 611.01 402H736V143.23A5.244 5.244 0 0 0 730.74 138H255.26a5.244 5.244 0 0 0-5.26 5.23v387.556h300.234l32.75-108.054C586.716 410.42 598.1 402 611.01 402H736v14.034h48V402h88.724c16.168 0 29.276 13.054 29.276 29.16 0 0.634-0.02 1.268-0.062 1.902l-11.634 177.13-47.898-3.146L852.722 450H624.876l-39.034 128.786H153.718L179.492 874h510.57v48H162.34c-15.188 0-27.852-11.564-29.166-26.632L104.112 562.47c-1.4-16.044 10.52-30.18 26.628-31.576 0.844-0.072 1.69-0.108 2.538-0.108H202V143.23C202 113.826 225.852 90 255.26 90h475.48C760.148 90 784 113.826 784 143.23V402zM180.994 891.192C180.14 881.426 172.008 874 162.34 874h17.152l1.5 17.192zM628.92 436.654c-2.41 7.954-9.7 13.346-17.91 13.346h13.866l4.044-13.346zM852.72 450l1.32-20.084c-0.026 0.414-0.04 0.828-0.04 1.242 0 10.45 8.426 18.842 18.724 18.842h-20.002z m0 0l1.32-20.084c-0.026 0.414-0.04 0.828-0.04 1.242 0 10.45 8.426 18.842 18.724 18.842h-20.002z m-241.71 0c8.212 0 15.5-5.392 17.91-13.346L624.876 450h-13.866zM162.34 874h17.152l1.5 17.192C180.14 881.426 172.01 874 162.34 874zM848 734.44V898c0 13.254-10.746 24-24 24s-24-10.746-24-24v-155.888l-53.386 51.208c-9.566 9.176-24.76 8.86-33.934-0.706-9.176-9.566-8.86-24.76 0.706-33.934l98-94c9.286-8.906 23.942-8.906 33.228 0l98 94c9.566 9.174 9.88 24.368 0.706 33.934-9.174 9.566-24.368 9.88-33.934 0.706L848 734.44zM304 216h250c13.254 0 24 10.746 24 24s-10.746 24-24 24H304c-13.254 0-24-10.746-24-24s10.746-24 24-24z m0 84h326c13.254 0 24 10.746 24 24s-10.746 24-24 24H304c-13.254 0-24-10.746-24-24s10.746-24 24-24z" p-id="43265"></path></svg>