<?xml version="1.0" standalone="no"?><!DOCTYPE svg PUBLIC "-//W3C//DTD SVG 1.1//EN" "http://www.w3.org/Graphics/SVG/1.1/DTD/svg11.dtd"><svg t="1539338319600" class="icon" style="" viewBox="0 0 1024 1024" version="1.1" xmlns="http://www.w3.org/2000/svg" p-id="67266" xmlns:xlink="http://www.w3.org/1999/xlink" width="200" height="200"><defs><style type="text/css"></style></defs><path d="M511.8 312.5m-30.7 0a30.7 30.7 0 1 0 61.4 0 30.7 30.7 0 1 0-61.4 0Z" p-id="67267"></path><path d="M511.8 404.5c-16.9 0-30.7 13.8-30.7 30.7v245.2c0 16.9 13.8 30.7 30.7 30.7s30.7-13.8 30.7-30.7V435.1c-0.1-16.9-13.9-30.6-30.7-30.6z" p-id="67268"></path><path d="M512.3 63.9c-210.8 0-381.6 170.9-381.6 381.6 0 134.8 70.1 253 175.7 320.8l184.3 184.3c3 3 6.4 5.2 10.1 6.7 1.8 0.7 3.8 1.3 5.7 1.7 1.5 0.3 2.9 0.5 4.4 0.5h2.9c1 0 2-0.1 2.9-0.3 2.4-0.3 4.8-1 7.1-1.9 3.7-1.5 7.1-3.7 10.1-6.7l184.5-184.5c105.5-67.8 175.5-185.9 175.5-320.6 0-210.8-170.8-381.6-381.6-381.6z m171.4 651v1c-2.4 1.4-4.7 3.1-6.8 5.1L512.3 885.6 347.7 721c-1.3-1.3-2.6-2.4-4.1-3.4v-0.3C252.8 660.7 192 560.2 192 445.5c0-176.6 143.7-320.3 320.3-320.3 176.6 0 320.3 143.7 320.3 320.3 0 113.4-59.8 212.4-148.9 269.4z" p-id="67269"></path></svg>